{
  "accessors": [
    {
      "bufferView": 2,
      "componentType": 5126,
      "count": 1231,
      "max": [
        231.2821044921875,
        315.1885070800781,
        48.96670150756836
      ],
      "min": [
        -231.41119384765625,
        -198.07420349121094,
        -34.813499450683594
      ],
      "type": "VEC3"
    },
    {
      "bufferView": 2,
      "byteOffset": 14772,
      "componentType": 5126,
      "count": 1231,
      "max": [
        0.9982885718345642,
        0.9854139089584351,
        0.9999783039093018
      ],
      "min": [
        -0.9999136328697205,
        -1.0,
        -0.9999251365661621
      ],
      "type": "VEC3"
    },
    {
      "bufferView": 1,
      "componentType": 5126,
      "count": 1231,
      "max": [
        0.9922000169754028,
        -0.005900000222027302
      ],
      "min": [
        0.008200000040233135,
        -0.9922000169754028
      ],
      "type": "VEC2"
    },
    {
      "bufferView": 0,
      "componentType": 5125,
      "count": 3468,
      "type": "SCALAR"
    },
    {
      "bufferView": 2,
      "byteOffset": 29544,
      "componentType": 5126,
      "count": 1784,
      "max": [
        233.83140563964844,
        315.1885070800781,
        29.313499450683594
      ],
      "min": [
        -233.82550048828125,
        -231.20950317382813,
        -44.13690185546875
      ],
      "type": "VEC3"
    },
    {
      "bufferView": 2,
      "byteOffset": 50952,
      "componentType": 5126,
      "count": 1784,
      "max": [
        1.0,
        1.0,
        0.9990205764770508
      ],
      "min": [
        -1.0,
        -1.0,
        -1.0
      ],
      "type": "VEC3"
    },
    {
      "bufferView": 1,
      "byteOffset": 9848,
      "componentType": 5126,
      "count": 1784,
      "max": [
        0.9940999746322632,
        -0.006800000090152025
      ],
      "min": [
        0.002300000051036477,
        -0.9951000213623047
      ],
      "type": "VEC2"
    },
    {
      "bufferView": 0,
      "byteOffset": 13872,
      "componentType": 5125,
      "count": 4134,
      "type": "SCALAR"
    },
    {
      "bufferView": 2,
      "byteOffset": 72360,
      "componentType": 5126,
      "count": 1662,
      "max": [
        222.02540588378906,
        315.1885070800781,
        47.692100524902344
      ],
      "min": [
        -222.0207061767578,
        -231.20950317382813,
        -47.757301330566406
      ],
      "type": "VEC3"
    },
    {
      "bufferView": 2,
      "byteOffset": 92304,
      "componentType": 5126,
      "count": 1662,
      "max": [
        0.999405562877655,
        1.0,
        0.9999892711639404
      ],
      "min": [
        -0.9994056224822998,
        -1.0,
        -0.9999967813491821
      ],
      "type": "VEC3"
    },
    {
      "bufferView": 1,
      "byteOffset": 24120,
      "componentType": 5126,
      "count": 1662,
      "max": [
        0.9961000084877014,
        -0.0038999998942017555
      ],
      "min": [
        0.009700000286102295,
        -0.9940999746322632
      ],
      "type": "VEC2"
    },
    {
      "bufferView": 0,
      "byteOffset": 30408,
      "componentType": 5125,
      "count": 4002,
      "type": "SCALAR"
    },
    {
      "bufferView": 2,
      "byteOffset": 112248,
      "componentType": 5126,
      "count": 2564,
      "max": [
        233.8206024169922,
        255.4882049560547,
        48.52000045776367
      ],
      "min": [
        -233.8153076171875,
        -209.21620178222656,
        -47.72549819946289
      ],
      "type": "VEC3"
    },
    {
      "bufferView": 2,
      "byteOffset": 143016,
      "componentType": 5126,
      "count": 2564,
      "max": [
        1.0,
        1.0,
        0.9996253848075867
      ],
      "min": [
        -1.0,
        -1.0,
        -1.0
      ],
      "type": "VEC3"
    },
    {
      "bufferView": 1,
      "byteOffset": 37416,
      "componentType": 5126,
      "count": 2564,
      "max": [
        0.9945999979972839,
        -0.006800000090152025
      ],
      "min": [
        0.010200000368058681,
        -0.9961000084877014
      ],
      "type": "VEC2"
    },
    {
      "bufferView": 0,
      "byteOffset": 46416,
      "componentType": 5125,
      "count": 7008,
      "type": "SCALAR"
    },
    {
      "bufferView": 2,
      "byteOffset": 173784,
      "componentType": 5126,
      "count": 20,
      "max": [
        95.19509887695313,
        -160.79110717773438,
        9.534199714660645
      ],
      "min": [
        -98.32260131835938,
        -164.79110717773438,
        -10.385700225830078
      ],
      "type": "VEC3"
    },
    {
      "bufferView": 2,
      "byteOffset": 174024,
      "componentType": 5126,
      "count": 20,
      "max": [
        0.0,
        1.0,
        0.0
      ],
      "min": [
        0.0,
        0.9999999403953552,
        0.0
      ],
      "type": "VEC3"
    },
    {
      "bufferView": 1,
      "byteOffset": 57928,
      "componentType": 5126,
      "count": 20,
      "max": [
        1.0,
        1.0
      ],
      "min": [
        0.0,
        0.0
      ],
      "type": "VEC2"
    },
    {
      "bufferView": 0,
      "byteOffset": 74448,
      "componentType": 5125,
      "count": 30,
      "type": "SCALAR"
    }
  ],
  "asset": {
    "extras": {
      "author": "lightwarrior (https://sketchfab.com/lightwarrior)",
      "license": "CC-BY-4.0 (http://creativecommons.org/licenses/by/4.0/)",
      "source": "https://sketchfab.com/3d-models/x-70b-phantom-class-prototype-70a0eb90f837470899986922c98f146e",
      "title": "X-70B Phantom-class Prototype"
    },
    "generator": "Sketchfab-12.68.0",
    "version": "2.0"
  },
  "bufferViews": [
    {
      "buffer": 0,
      "byteLength": 74568,
      "name": "floatBufferViews",
      "target": 34963
    },
    {
      "buffer": 0,
      "byteLength": 58088,
      "byteOffset": 74568,
      "byteStride": 8,
      "name": "floatBufferViews",
      "target": 34962
    },
    {
      "buffer": 0,
      "byteLength": 174264,
      "byteOffset": 132656,
      "byteStride": 12,
      "name": "floatBufferViews",
      "target": 34962
    }
  ],
  "buffers": [
    {
      "byteLength": 306920,
      "uri": "scene.bin"
    }
  ],
  "images": [
    {
      "uri": "textures/1c64424e_dds_baseColor.png"
    },
    {
      "uri": "textures/1c64424e_dds_emissive.png"
    },
    {
      "uri": "textures/88798f09_dds_baseColor.png"
    },
    {
      "uri": "textures/88798f09_dds_emissive.png"
    },
    {
      "uri": "textures/9239ceca_dds_baseColor.png"
    },
    {
      "uri": "textures/9239ceca_dds_emissive.png"
    },
    {
      "uri": "textures/9c66b645_dds_baseColor.png"
    },
    {
      "uri": "textures/9c66b645_dds_emissive.png"
    },
    {
      "uri": "textures/9f87d84a_dds_baseColor.png"
    }
  ],
  "materials": [
    {
      "doubleSided": true,
      "emissiveFactor": [
        1.0,
        1.0,
        1.0
      ],
      "emissiveTexture": {
        "index": 1
      },
      "name": "1c64424e_dds",
      "pbrMetallicRoughness": {
        "baseColorTexture": {
          "index": 0
        },
        "roughnessFactor": 0.6
      }
    },
    {
      "doubleSided": true,
      "emissiveFactor": [
        1.0,
        1.0,
        1.0
      ],
      "emissiveTexture": {
        "index": 3
      },
      "name": "88798f09_dds",
      "pbrMetallicRoughness": {
        "baseColorTexture": {
          "index": 2
        },
        "roughnessFactor": 0.6
      }
    },
    {
      "doubleSided": true,
      "emissiveFactor": [
        1.0,
        1.0,
        1.0
      ],
      "emissiveTexture": {
        "index": 5
      },
      "name": "9239ceca_dds",
      "pbrMetallicRoughness": {
        "baseColorTexture": {
          "index": 4
        },
        "roughnessFactor": 0.6
      }
    },
    {
      "doubleSided": true,
      "emissiveFactor": [
        1.0,
        1.0,
        1.0
      ],
      "emissiveTexture": {
        "index": 7
      },
      "name": "9c66b645_dds",
      "pbrMetallicRoughness": {
        "baseColorTexture": {
          "index": 6
        },
        "roughnessFactor": 0.6
      }
    },
    {
      "alphaMode": "BLEND",
      "doubleSided": true,
      "name": "9f87d84a_dds",
      "pbrMetallicRoughness": {
        "baseColorFactor": [
          1.0,
          1.0,
          1.0,
          0.0
        ],
        "baseColorTexture": {
          "index": 8
        },
        "metallicFactor": 0.0,
        "roughnessFactor": 0.6
      }
    }
  ],
  "meshes": [
    {
      "name": "Object_0",
      "primitives": [
        {
          "attributes": {
            "NORMAL": 1,
            "POSITION": 0,
            "TEXCOORD_0": 2
          },
          "indices": 3,
          "material": 0,
          "mode": 4
        }
      ]
    },
    {
      "name": "Object_1",
      "primitives": [
        {
          "attributes": {
            "NORMAL": 5,
            "POSITION": 4,
            "TEXCOORD_0": 6
          },
          "indices": 7,
          "material": 1,
          "mode": 4
        }
      ]
    },
    {
      "name": "Object_2",
      "primitives": [
        {
          "attributes": {
            "NORMAL": 9,
            "POSITION": 8,
            "TEXCOORD_0": 10
          },
          "indices": 11,
          "material": 2,
          "mode": 4
        }
      ]
    },
    {
      "name": "Object_3",
      "primitives": [
        {
          "attributes": {
            "NORMAL": 13,
            "POSITION": 12,
            "TEXCOORD_0": 14
          },
          "indices": 15,
          "material": 3,
          "mode": 4
        }
      ]
    },
    {
      "name": "Object_4",
      "primitives": [
        {
          "attributes": {
            "NORMAL": 17,
            "POSITION": 16,
            "TEXCOORD_0": 18
          },
          "indices": 19,
          "material": 4,
          "mode": 4
        }
      ]
    }
  ],
  "nodes": [
    {
      "children": [
        1
      ],
      "matrix": [
        1.0,
        0.0,
        0.0,
        0.0,
        0.0,
        2.220446049250313e-16,
        -1.0,
        0.0,
        0.0,
        1.0,
        2.220446049250313e-16,
        0.0,
        0.0,
        0.0,
        0.0,
        1.0
      ],
      "name": "Sketchfab_model"
    },
    {
      "children": [
        2,
        3,
        4,
        5,
        6
      ],
      "name": "X-70B Phantom-class prototype.obj.cleaner.materialmerger.gles"
    },
    {
      "mesh": 0,
      "name": "Object_2"
    },
    {
      "mesh": 1,
      "name": "Object_3"
    },
    {
      "mesh": 2,
      "name": "Object_4"
    },
    {
      "mesh": 3,
      "name": "Object_5"
    },
    {
      "mesh": 4,
      "name": "Object_6"
    }
  ],
  "samplers": [
    {
      "magFilter": 9729,
      "minFilter": 9987,
      "wrapS": 10497,
      "wrapT": 10497
    }
  ],
  "scene": 0,
  "scenes": [
    {
      "name": "Sketchfab_Scene",
      "nodes": [
        0
      ]
    }
  ],
  "textures": [
    {
      "sampler": 0,
      "source": 0
    },
    {
      "sampler": 0,
      "source": 1
    },
    {
      "sampler": 0,
      "source": 2
    },
    {
      "sampler": 0,
      "source": 3
    },
    {
      "sampler": 0,
      "source": 4
    },
    {
      "sampler": 0,
      "source": 5
    },
    {
      "sampler": 0,
      "source": 6
    },
    {
      "sampler": 0,
      "source": 7
    },
    {
      "sampler": 0,
      "source": 8
    }
  ]
}
